<svg width="120" height="100" viewBox="0 0 120 100" fill="none" xmlns="http://www.w3.org/2000/svg">
<rect width="120" height="100" fill="#E5E5E5"/>
<rect width="120" height="100" fill="white"/>
<path d="M79 50C79 46.6617 78.0973 43.3823 76.3828 40.4921C74.6683 37.6018 72.2025 35.2027 69.2337 33.5363" stroke="black" stroke-width="4"/>
<path d="M79 56L84.1962 49.25H73.8038L79 56Z" fill="black"/>
<path d="M60 69C63.3383 69 66.6177 68.0973 69.5079 66.3828C72.3982 64.6683 74.7973 62.2025 76.4637 59.2337" stroke="black" stroke-width="4"/>
<path d="M54 69L60.75 74.1962L60.75 63.8038L54 69Z" fill="black"/>
<path d="M41 50C41 53.3383 41.9027 56.6177 43.6172 59.5079C45.3317 62.3982 47.7975 64.7973 50.7663 66.4636" stroke="black" stroke-width="4"/>
<path d="M41 44L35.8038 50.75L46.1962 50.75L41 44Z" fill="black"/>
<path d="M60 31C56.6617 31 53.3823 31.9027 50.4921 33.6172C47.6018 35.3317 45.2027 37.7975 43.5363 40.7663" stroke="black" stroke-width="4"/>
<path d="M66 31L59.25 25.8038L59.25 36.1962L66 31Z" fill="black"/>
</svg>
