<svg width="200" height="200" viewBox="0 0 200 200" fill="none" xmlns="http://www.w3.org/2000/svg">
<path d="M160.333 76C160.333 67.2837 158.055 58.7188 153.724 51.1548C149.392 43.5907 143.159 37.2903 135.642 32.8784C128.125 28.4664 119.585 26.0962 110.869 26.0029C102.153 25.9095 93.5644 28.0962 85.9544 32.3461" stroke="black" stroke-width="13"/>
<path d="M160.333 96L177.654 73.5H143.013L160.333 96Z" fill="black"/>
<path d="M66.6667 76C66.6667 84.7163 68.9452 93.2812 73.2764 100.845C77.6076 108.409 83.8408 114.71 91.3581 119.122C98.8753 123.534 107.415 125.904 116.131 125.997C124.847 126.091 133.436 123.904 141.046 119.654" stroke="black" stroke-width="13"/>
<path d="M66.6667 56L49.3461 78.5H83.9872L66.6667 56Z" fill="black"/>
</svg>
