<svg width="200" height="200" viewBox="0 0 200 200" fill="none" xmlns="http://www.w3.org/2000/svg">
<rect width="200" height="200" fill="none"/>
<path d="M147.333 100C147.333 91.2837 145.055 82.7188 140.724 75.1548C136.392 67.5907 130.159 61.2903 122.642 56.8784C115.125 52.4664 106.585 50.0962 97.869 50.0029C89.1532 49.9095 80.5644 52.0962 72.9544 56.3461" stroke="black" stroke-width="13"/>
<path d="M147.333 120L164.654 97.5H130.013L147.333 120Z" fill="black"/>
<path d="M53.6667 100C53.6667 108.716 55.9452 117.281 60.2764 124.845C64.6076 132.409 70.8408 138.71 78.3581 143.122C85.8753 147.534 94.4152 149.904 103.131 149.997C111.847 150.091 120.436 147.904 128.046 143.654" stroke="black" stroke-width="13"/>
<path d="M53.6667 80L36.3461 102.5H70.9872L53.6667 80Z" fill="black"/>
</svg>
